<svg width="36" height="36" viewBox="0 0 36 36" fill="none" xmlns="http://www.w3.org/2000/svg">
<path fill-rule="evenodd" clip-rule="evenodd" d="M9.87868 8.87868C10.4413 8.31607 11.2044 8 12 8H16C16.5523 8 17 8.44772 17 9C17 9.55228 16.5523 10 16 10H12C11.7348 10 11.4804 10.1054 11.2929 10.2929C11.1054 10.4804 11 10.7348 11 11V25C11 25.5477 11.4523 26 12 26H16C16.5523 26 17 26.4477 17 27C17 27.5523 16.5523 28 16 28H12C10.3477 28 9 26.6523 9 25V11C9 10.2044 9.31607 9.44129 9.87868 8.87868ZM21.2929 12.2929C21.6834 11.9024 22.3166 11.9024 22.7071 12.2929L27.7071 17.2929C28.0976 17.6834 28.0976 18.3166 27.7071 18.7071L22.7071 23.7071C22.3166 24.0976 21.6834 24.0976 21.2929 23.7071C20.9024 23.3166 20.9024 22.6834 21.2929 22.2929L24.5858 19H15C14.4477 19 14 18.5523 14 18C14 17.4477 14.4477 17 15 17H24.5858L21.2929 13.7071C20.9024 13.3166 20.9024 12.6834 21.2929 12.2929Z" fill="#BEC0C4"/>
</svg>
